<?xml version="1.0" encoding="UTF-8" ?>
<!DOCTYPE svg PUBLIC "-//W3C//DTD SVG 1.1//EN" "http://www.w3.org/Graphics/SVG/1.1/DTD/svg11.dtd">
<svg width="1416pt" height="340pt" viewBox="0 0 1416 340" version="1.1" xmlns="http://www.w3.org/2000/svg">
<g id="#ffffffff">
</g>
<g id="#c12033ff">
<path fill="#c12033" opacity="1.00" d=" M 190.97 19.76 C 235.19 15.21 280.30 16.41 323.77 26.14 C 323.72 76.07 323.76 126.01 323.76 175.95 C 323.75 182.54 322.54 189.05 321.32 195.50 C 315.18 224.89 301.90 253.23 280.90 274.94 C 265.51 291.05 246.10 303.13 225.15 310.57 C 206.49 317.31 186.71 320.62 166.93 321.52 C 158.95 321.87 151.10 320.25 143.21 319.28 C 143.00 291.10 143.20 262.92 143.12 234.74 C 148.76 237.04 154.84 238.28 160.94 238.25 C 173.27 238.23 185.97 237.43 197.38 232.33 C 222.43 221.86 240.57 196.22 241.10 168.93 C 241.31 146.91 241.11 124.88 241.20 102.86 C 229.73 100.18 217.79 100.67 206.13 101.64 C 183.62 104.01 161.01 110.98 142.82 124.80 C 120.39 141.52 106.98 168.47 103.96 195.97 C 103.94 237.79 103.92 279.61 103.87 321.43 C 75.75 321.44 47.64 321.46 19.52 321.42 C 19.50 280.62 19.48 239.82 19.52 199.02 C 22.05 148.19 46.57 99.13 84.97 65.89 C 114.45 40.15 151.97 23.62 190.97 19.76 Z" />
<path fill="#c12033" opacity="1.00" d=" M 567.06 79.30 C 582.00 79.03 596.05 89.67 600.47 103.81 C 601.96 108.39 602.12 113.24 602.14 118.01 C 602.11 127.39 602.13 136.77 602.13 146.16 C 628.06 146.23 654.00 146.16 679.93 146.19 C 679.93 123.88 679.94 101.58 679.93 79.27 C 694.34 79.01 708.05 88.73 712.87 102.24 C 715.11 108.23 715.01 114.74 715.01 121.04 C 714.99 162.74 715.00 204.45 715.00 246.16 C 700.21 246.24 686.26 235.94 681.72 221.94 C 680.13 217.48 680.00 212.68 679.92 208.00 C 679.94 198.39 679.94 188.79 679.93 179.19 C 653.63 179.11 627.34 179.33 601.05 179.08 C 586.98 178.96 573.78 169.23 569.15 156.03 C 566.92 149.94 567.02 143.37 567.06 136.98 C 567.07 117.75 567.06 98.52 567.06 79.30 Z" />
</g>
<g id="#231f20ff">
<path fill="#231f20" opacity="1.00" d=" M 432.16 86.15 C 450.58 78.19 471.80 77.23 491.02 82.84 C 508.55 88.07 523.78 99.64 534.79 114.10 C 545.13 127.60 550.64 144.50 550.75 161.47 C 550.89 189.69 550.77 217.92 550.81 246.14 C 522.20 246.07 493.59 246.20 464.99 246.08 C 448.51 245.94 432.00 241.12 418.48 231.62 C 402.96 220.81 390.40 205.21 385.03 186.92 C 379.84 168.81 380.54 148.91 387.65 131.41 C 396.08 111.45 412.48 95.08 432.16 86.15 M 438.70 120.73 C 428.14 128.24 420.11 139.62 417.65 152.44 C 415.49 164.16 416.85 176.80 422.78 187.26 C 431.10 202.36 447.49 213.15 464.98 212.91 C 481.76 212.97 498.54 212.92 515.33 212.94 C 515.26 195.62 515.39 178.30 515.26 160.98 C 515.05 140.53 500.69 121.15 481.30 114.78 C 467.19 110.36 450.89 112.09 438.70 120.73 Z" />
<path fill="#231f20" opacity="1.00" d=" M 770.22 93.15 C 799.18 73.43 840.87 74.75 868.30 96.68 C 882.97 108.07 894.61 123.99 898.93 142.22 C 900.97 149.98 901.54 158.03 901.51 166.02 C 901.49 192.72 901.51 219.42 901.50 246.12 C 873.02 246.10 844.55 246.18 816.08 246.08 C 799.28 246.05 782.44 241.03 768.70 231.29 C 754.94 221.51 743.43 208.06 737.51 192.12 C 731.11 174.94 730.76 155.67 735.96 138.14 C 741.57 119.67 754.39 103.94 770.22 93.15 M 793.31 118.33 C 779.28 126.17 769.20 140.99 767.69 157.05 C 766.53 168.18 768.67 179.83 774.70 189.35 C 780.87 199.02 790.10 207.04 801.13 210.57 C 806.54 212.37 812.29 212.97 817.97 212.95 C 833.98 212.93 849.99 212.94 866.00 212.94 C 865.97 195.60 866.07 178.26 865.95 160.93 C 865.73 138.58 848.47 117.54 826.47 113.30 C 815.29 111.34 803.25 112.61 793.31 118.33 Z" />
<path fill="#231f20" opacity="1.00" d=" M 981.85 81.62 C 989.42 79.76 997.24 79.25 1005.02 79.24 C 1020.52 79.26 1036.02 79.24 1051.53 79.26 C 1051.68 94.69 1039.77 109.17 1024.55 111.80 C 1013.27 113.32 1001.71 111.16 990.54 113.73 C 976.49 117.03 964.70 127.38 958.13 140.04 C 951.78 152.63 951.21 167.86 956.04 181.05 C 960.89 193.38 970.71 203.75 982.84 209.11 C 992.28 213.10 1002.95 213.89 1012.97 211.86 C 1032.36 207.79 1047.90 190.55 1050.80 171.07 C 1051.80 165.08 1051.13 158.86 1052.86 152.98 C 1056.95 138.39 1071.26 127.21 1086.54 127.49 C 1086.59 167.05 1086.55 206.62 1086.56 246.18 C 1079.31 246.03 1071.87 244.38 1066.01 239.92 C 1061.43 236.64 1057.99 232.06 1055.27 227.20 C 1045.56 235.06 1034.27 241.10 1022.04 243.86 C 1004.88 247.79 986.48 246.58 970.11 240.05 C 952.36 232.61 937.28 219.09 927.70 202.42 C 911.46 173.01 915.27 133.33 938.30 108.50 C 949.77 95.56 964.89 85.54 981.85 81.62 Z" />
<path fill="#231f20" opacity="1.00" d=" M 1182.07 79.46 C 1200.20 78.97 1218.35 79.40 1236.49 79.23 C 1236.88 95.21 1223.92 110.14 1208.07 112.00 C 1195.21 113.27 1181.70 110.57 1169.40 115.64 C 1153.77 121.92 1141.45 136.47 1138.68 153.19 C 1137.41 160.39 1138.01 167.72 1137.87 174.98 C 1137.77 187.57 1138.07 200.17 1137.72 212.75 C 1137.31 230.77 1120.84 246.48 1102.82 246.10 C 1102.80 227.07 1102.81 208.03 1102.81 189.00 C 1103.05 176.30 1102.19 163.54 1103.62 150.89 C 1108.26 112.50 1143.55 80.80 1182.07 79.46 Z" />
<path fill="#231f20" opacity="1.00" d=" M 1312.58 79.87 C 1331.67 77.69 1351.68 81.52 1367.88 92.09 C 1385.84 103.81 1400.24 121.90 1405.09 143.03 C 1409.65 162.87 1407.43 184.58 1397.44 202.47 C 1388.19 218.46 1373.95 231.68 1357.02 239.17 C 1339.60 246.85 1319.57 247.91 1301.17 243.44 C 1279.70 237.92 1261.07 223.21 1249.65 204.34 C 1239.04 186.65 1236.44 164.90 1240.49 144.85 C 1247.74 111.04 1278.12 83.46 1312.58 79.87 M 1311.44 113.72 C 1301.08 115.95 1291.93 122.23 1285.32 130.40 C 1270.73 147.24 1269.74 174.16 1282.86 192.12 C 1291.87 204.99 1307.11 213.43 1322.97 212.92 C 1339.30 213.41 1354.89 204.36 1363.92 191.00 C 1370.52 181.47 1373.18 169.55 1372.12 158.08 C 1370.75 138.96 1357.12 121.47 1339.11 115.08 C 1330.26 112.04 1320.55 111.67 1311.44 113.72 Z" />
</g>
</svg>
